<svg width="207" height="30" viewBox="0 0 207 30" fill="none" xmlns="http://www.w3.org/2000/svg">
<rect width="29.0909" height="29.0909" rx="14.5455" fill="#3678B1"/>
<path d="M13.0912 17.1535L10.6963 14.7586L9.66797 15.7869L13.0912 19.2102L20.1509 12.1506L19.1225 11.1222L13.0912 17.1535Z" fill="white"/>
<rect x="29.0908" y="13.4546" width="30" height="2.18182" fill="#3678B1"/>
<rect x="59.0908" width="29.0909" height="29.0909" rx="14.5455" fill="#3678B1"/>
<path d="M72.1821 17.1535L69.7872 14.7586L68.7588 15.7869L72.1821 19.2102L79.2417 12.1506L78.2133 11.1222L72.1821 17.1535Z" fill="white"/>
<rect x="88.1816" y="13.4546" width="30" height="2.18182" fill="#CFD6DC"/>
<rect x="118.909" y="0.727273" width="27.6364" height="27.6364" rx="13.8182" stroke="#3678B1" stroke-width="1.45455"/>
<rect x="126.909" y="8.72729" width="11.6364" height="11.6364" rx="5.81818" fill="#3678B1"/>
<rect x="147.273" y="13.4546" width="30" height="2.18182" fill="#CFD6DC"/>
<rect x="178" y="0.727273" width="27.6364" height="27.6364" rx="13.8182" stroke="#CFD6DC" stroke-width="1.45455"/>
</svg>
