<svg width="32" height="33" viewBox="0 0 32 33" fill="none" xmlns="http://www.w3.org/2000/svg">
<path d="M23.7318 6.27607C23.6254 6.27607 23.5189 6.24946 23.4258 6.19624C20.871 4.87895 18.6622 4.3201 16.0144 4.3201C13.3798 4.3201 10.8783 4.94548 8.60294 6.19624C8.2836 6.36922 7.88442 6.24946 7.69813 5.93012C7.52516 5.61078 7.64491 5.19829 7.96425 5.02531C10.4392 3.68141 13.1536 2.9895 16.0144 2.9895C18.8485 2.9895 21.3234 3.61488 24.0379 5.01201C24.3705 5.18499 24.4903 5.58416 24.3173 5.90351C24.1975 6.14302 23.9713 6.27607 23.7318 6.27607ZM4.69099 13.2617C4.55793 13.2617 4.42487 13.2218 4.30511 13.142C3.99908 12.9291 3.93255 12.5166 4.14544 12.2105C5.46273 10.3477 7.13928 8.88404 9.13518 7.85948C13.3132 5.70392 18.6622 5.69061 22.8536 7.84618C24.8495 8.87074 26.5261 10.3211 27.8434 12.1706C28.0563 12.4633 27.9897 12.8891 27.6837 13.102C27.3777 13.3149 26.9652 13.2484 26.7523 12.9424C25.5547 11.2658 24.0379 9.94852 22.2416 9.03041C18.4227 7.07443 13.5395 7.07443 9.73395 9.04372C7.92433 9.97513 6.40745 11.3057 5.20992 12.9823C5.10347 13.1686 4.90388 13.2617 4.69099 13.2617ZM13.0072 29.322C12.8342 29.322 12.6613 29.2555 12.5415 29.1224C11.3839 27.9648 10.7585 27.2197 9.867 25.6096C8.94889 23.973 8.46988 21.9771 8.46988 19.8349C8.46988 15.883 11.8496 12.6629 16.0011 12.6629C20.1525 12.6629 23.5322 15.883 23.5322 19.8349C23.5322 20.2074 23.2395 20.5001 22.8669 20.5001C22.4944 20.5001 22.2016 20.2074 22.2016 19.8349C22.2016 16.6148 19.4207 13.9935 16.0011 13.9935C12.5814 13.9935 9.80048 16.6148 9.80048 19.8349C9.80048 21.7509 10.2263 23.5206 11.0379 24.9576C11.8895 26.4878 12.475 27.1398 13.4995 28.1777C13.7523 28.4438 13.7523 28.8563 13.4995 29.1224C13.3532 29.2555 13.1802 29.322 13.0072 29.322ZM22.5476 26.8604C20.9642 26.8604 19.5671 26.4612 18.4227 25.6762C16.4401 24.3323 15.2559 22.1501 15.2559 19.8349C15.2559 19.4623 15.5486 19.1696 15.9212 19.1696C16.2938 19.1696 16.5865 19.4623 16.5865 19.8349C16.5865 21.711 17.5445 23.4807 19.1679 24.5718C20.1126 25.2105 21.217 25.5165 22.5476 25.5165C22.8669 25.5165 23.3992 25.4766 23.9314 25.3834C24.2907 25.3169 24.6366 25.5564 24.7032 25.929C24.7697 26.2882 24.5302 26.6342 24.1576 26.7007C23.3992 26.8471 22.7339 26.8604 22.5476 26.8604ZM19.8731 29.6014C19.8199 29.6014 19.7533 29.5881 19.7001 29.5748C17.5845 28.9894 16.2006 28.2043 14.7503 26.7806C12.8875 24.931 11.8629 22.4694 11.8629 19.8349C11.8629 17.6793 13.6991 15.9229 15.9611 15.9229C18.2231 15.9229 20.0594 17.6793 20.0594 19.8349C20.0594 21.2586 21.2968 22.4162 22.827 22.4162C24.3572 22.4162 25.5947 21.2586 25.5947 19.8349C25.5947 14.8185 21.2702 10.7469 15.9478 10.7469C12.1689 10.7469 8.70939 12.8492 7.15259 16.1092C6.63366 17.187 6.36754 18.451 6.36754 19.8349C6.36754 20.8727 6.46068 22.5093 7.25904 24.6383C7.3921 24.9843 7.21912 25.3701 6.87316 25.4899C6.52721 25.6229 6.14134 25.4367 6.02158 25.104C5.36959 23.3609 5.05025 21.6312 5.05025 19.8349C5.05025 18.2381 5.35628 16.7878 5.95505 15.5237C7.72474 11.8114 11.65 9.40298 15.9478 9.40298C22.002 9.40298 26.9252 14.0734 26.9252 19.8215C26.9252 21.9771 25.089 23.7335 22.827 23.7335C20.565 23.7335 18.7288 21.9771 18.7288 19.8215C18.7288 18.3978 17.4913 17.2402 15.9611 17.2402C14.431 17.2402 13.1935 18.3978 13.1935 19.8215C13.1935 22.0969 14.0717 24.2258 15.6817 25.8225C16.9458 27.0733 18.1566 27.7652 20.0328 28.2841C20.392 28.3773 20.5916 28.7498 20.4985 29.0958C20.4319 29.4018 20.1525 29.6014 19.8731 29.6014Z" fill="#3678B1"/>
</svg>
