<svg width="22" height="22" viewBox="0 0 22 22" fill="none" xmlns="http://www.w3.org/2000/svg">
<path d="M11.0013 21.1788C8.39128 21.1788 5.78128 20.1888 3.80128 18.1988C1.88128 16.2788 0.821289 13.7188 0.821289 10.9988C0.821289 8.2788 1.88128 5.71879 3.80128 3.79879C7.77129 -0.171211 14.2313 -0.171211 18.2013 3.79879C22.1713 7.76879 22.1713 14.2288 18.2013 18.1988C16.2113 20.1888 13.6113 21.1788 11.0013 21.1788ZM11.0013 1.38882C8.54128 1.38882 6.07128 2.32881 4.20128 4.19881C2.38128 6.01881 1.38129 8.4288 1.38129 10.9988C1.38129 13.5688 2.38128 15.9788 4.20128 17.7988C7.95128 21.5488 14.0513 21.5488 17.8013 17.7988C21.5513 14.0488 21.5513 7.94881 17.8013 4.19881C15.9313 2.32881 13.4613 1.38882 11.0013 1.38882Z" fill="black"/>
<path d="M6.83133 15.4488C6.76133 15.4488 6.68133 15.4188 6.63133 15.3688C6.52133 15.2588 6.52133 15.0787 6.63133 14.9687L14.8713 6.72874C14.9813 6.61874 15.1613 6.61874 15.2713 6.72874C15.3813 6.83874 15.3813 7.01876 15.2713 7.12876L7.03132 15.3688C6.97132 15.4288 6.90133 15.4488 6.83133 15.4488Z" fill="black"/>
<path d="M15.0713 15.4488C15.0013 15.4488 14.9313 15.4188 14.8713 15.3688L6.63133 7.12876C6.52133 7.01876 6.52133 6.83874 6.63133 6.72874C6.74133 6.61874 6.92132 6.61874 7.03132 6.72874L15.2713 14.9687C15.3813 15.0787 15.3813 15.2588 15.2713 15.3688C15.2113 15.4288 15.1413 15.4488 15.0713 15.4488Z" fill="black"/>
</svg>
