<svg width="25" height="24" viewBox="0 0 25 24" fill="none" xmlns="http://www.w3.org/2000/svg">
<path d="M22.4249 22.3412H2.57495C2.41495 22.3412 2.29492 22.2112 2.29492 22.0612V12.0912C2.29492 11.9312 2.42495 11.8112 2.57495 11.8112C2.72495 11.8112 2.85492 11.9412 2.85492 12.0912V21.7712H22.145V12.0912C22.145 11.9312 22.2749 11.8112 22.4249 11.8112C22.5749 11.8112 22.705 11.9412 22.705 12.0912V22.0612C22.705 22.2212 22.5749 22.3412 22.4249 22.3412Z" fill="white"/>
<path d="M12.4948 17.9512C12.3348 17.9512 12.2148 17.8212 12.2148 17.6712V2.37115C12.2148 2.21115 12.3448 2.09119 12.4948 2.09119C12.6448 2.09119 12.7748 2.22115 12.7748 2.37115V17.6712C12.7748 17.8312 12.6448 17.9512 12.4948 17.9512Z" fill="white"/>
<path d="M14.605 5.17122C14.515 5.17122 14.425 5.13122 14.375 5.05122L12.505 2.43123L10.635 5.05122C10.545 5.18122 10.365 5.21117 10.235 5.12117C10.105 5.03117 10.075 4.8512 10.165 4.7212L12.265 1.77119C12.375 1.62119 12.625 1.62119 12.725 1.77119L14.825 4.7212C14.915 4.8512 14.885 5.02117 14.755 5.12117C14.705 5.16117 14.645 5.17122 14.595 5.17122H14.605Z" fill="white"/>
</svg>
