<svg width="22" height="17" viewBox="0 0 22 17" fill="none" xmlns="http://www.w3.org/2000/svg">
<path d="M16.5949 5.4507C16.4449 5.4007 16.2849 5.4707 16.2349 5.6207C16.1849 5.7707 16.2549 5.9307 16.4049 5.9807C17.7849 6.4907 19.0949 7.18069 20.2949 8.03069C17.1949 10.2607 13.4149 11.3607 9.59491 11.1507C9.43491 11.1507 9.30492 11.2607 9.29492 11.4207C9.29492 11.5807 9.40488 11.7107 9.56488 11.7207C9.88488 11.7407 10.2149 11.7507 10.5349 11.7507C14.2849 11.7507 17.9449 10.5307 20.9449 8.2607C21.0149 8.2107 21.0549 8.12069 21.0549 8.03069C21.0549 7.94069 21.0149 7.86069 20.9449 7.80069C19.6149 6.81069 18.1549 6.0207 16.6049 5.4507H16.5949Z" fill="white"/>
<path d="M6.82538 11.3306C6.95538 11.3306 7.07541 11.2406 7.10541 11.1106C7.13541 10.9606 7.04539 10.8106 6.89539 10.7706C4.68539 10.2806 2.63541 9.35064 0.79541 8.03064C4.60541 5.34064 9.3954 4.34064 13.9754 5.28064C14.1254 5.31064 14.2754 5.21066 14.3054 5.06066C14.3354 4.91066 14.2354 4.76065 14.0854 4.73065C9.28539 3.74065 4.2554 4.82066 0.2854 7.70066L0.145386 7.80065C0.0753857 7.85065 0.0253906 7.94064 0.0253906 8.03064C0.0253906 8.12064 0.065376 8.20065 0.135376 8.26065C2.11538 9.76065 4.34538 10.7906 6.76538 11.3306C6.78538 11.3306 6.80538 11.3306 6.82538 11.3306Z" fill="white"/>
<path d="M12.8459 8.05063C12.8459 9.32063 11.8159 10.3606 10.5359 10.3606C10.3759 10.3606 10.2559 10.4906 10.2559 10.6406C10.2559 10.7906 10.3859 10.9206 10.5359 10.9206C12.1159 10.9206 13.4059 9.63063 13.4059 8.05063C13.4059 7.89063 13.2759 7.77063 13.1259 7.77063C12.9759 7.77063 12.8459 7.90063 12.8459 8.05063Z" fill="white"/>
<path d="M10.5353 5.74066C11.2153 5.74066 11.8553 6.04067 12.2953 6.56067C12.3953 6.68067 12.5753 6.69067 12.6953 6.59067C12.8153 6.49067 12.8253 6.31066 12.7253 6.19066C12.1753 5.54066 11.3753 5.17065 10.5253 5.17065C8.94527 5.17065 7.65527 6.46066 7.65527 8.04066C7.65527 8.73066 7.90528 9.39066 8.34528 9.91066C8.40528 9.98066 8.48525 10.0107 8.56525 10.0107C8.63525 10.0107 8.6953 9.99066 8.7453 9.94066C8.8653 9.84066 8.87527 9.66066 8.77527 9.54066C8.41527 9.12066 8.21527 8.59066 8.21527 8.04066C8.21527 6.77066 9.24527 5.73067 10.5253 5.73067L10.5353 5.74066Z" fill="white"/>
<path d="M20.9849 0.330664C20.8849 0.210664 20.7049 0.200665 20.5849 0.300665L2.73492 15.6707C2.61492 15.7707 2.60489 15.9507 2.70489 16.0707C2.76489 16.1307 2.84491 16.1707 2.91491 16.1707C2.98491 16.1707 3.0449 16.1507 3.0949 16.1007L20.9449 0.730673C21.0649 0.630673 21.0749 0.450664 20.9749 0.330664H20.9849Z" fill="white"/>
<path d="M21.2653 5.46065C20.1453 4.90065 18.9953 4.43065 17.8553 4.05065C17.7053 4.00065 17.5454 4.08065 17.4954 4.23065C17.4454 4.38065 17.5253 4.54066 17.6753 4.59066C18.7953 4.96066 19.9153 5.42064 21.0053 5.97064C21.0453 5.99064 21.0853 6.00064 21.1353 6.00064C21.2353 6.00064 21.3353 5.94066 21.3853 5.84066C21.4553 5.70066 21.3953 5.53065 21.2553 5.46065H21.2653Z" fill="white"/>
<path d="M0.495098 6.00067C0.545098 6.00067 0.605061 5.99067 0.645061 5.96067C0.705061 5.92067 6.88507 2.04068 15.4651 3.98068C15.6151 4.01068 15.7651 3.92067 15.8051 3.77067C15.8351 3.62067 15.7451 3.47068 15.5951 3.43068C6.79507 1.44068 0.405074 5.45067 0.345074 5.49067C0.215074 5.57067 0.175047 5.75067 0.255047 5.88067C0.305047 5.96067 0.405098 6.01068 0.495098 6.01068V6.00067Z" fill="white"/>
</svg>
