<svg width="145" height="163" viewBox="0 0 145 163" fill="none" xmlns="http://www.w3.org/2000/svg">
<rect width="145" height="163" rx="24" fill="#3A3939"/>
<path d="M89 16V16C96.732 16 103 22.268 103 30V33" stroke="white" stroke-width="3" stroke-linecap="round"/>
<path d="M56 16V16C48.268 16 42 22.268 42 30V33" stroke="white" stroke-width="3" stroke-linecap="round"/>
<path d="M56 83V83C48.268 83 42 76.732 42 69V66" stroke="white" stroke-width="3" stroke-linecap="round"/>
<path d="M89 83V83C96.732 83 103 76.732 103 69V66" stroke="white" stroke-width="3" stroke-linecap="round"/>
<path d="M56 37C56 35.8954 56.8954 35 58 35C59.1046 35 60 35.8954 60 37V44C60 45.1046 59.1046 46 58 46C56.8954 46 56 45.1046 56 44V37Z" fill="white"/>
<rect x="85" y="35" width="4" height="11" rx="2" fill="white"/>
<path d="M73.6438 36.5C73.6438 40.6979 73.6438 42.3021 73.6438 46.5C73.6438 47.5347 73.8765 51.2988 73 52C72.3335 52.5332 68.8325 52.5 68 52.5" stroke="white" stroke-width="3" stroke-linecap="round"/>
<path d="M62 63C62.6047 63.6597 63.8012 64.5804 65.3363 65.4522C70.5072 68.3889 77.1351 67.6969 81.8211 64.0358C82.2414 63.7074 82.6381 63.3619 83 63" stroke="white" stroke-width="3" stroke-linecap="round"/>
<path d="M33.299 124V112.8H34.483V122.976H40.755V124H33.299ZM45.4599 124.08C44.6492 124.08 43.9185 123.899 43.2679 123.536C42.6279 123.163 42.1212 122.656 41.7479 122.016C41.3745 121.365 41.1879 120.624 41.1879 119.792C41.1879 118.949 41.3745 118.208 41.7479 117.568C42.1212 116.928 42.6279 116.427 43.2679 116.064C43.9079 115.701 44.6385 115.52 45.4599 115.52C46.2919 115.52 47.0279 115.701 47.6679 116.064C48.3185 116.427 48.8252 116.928 49.1879 117.568C49.5612 118.208 49.7479 118.949 49.7479 119.792C49.7479 120.624 49.5612 121.365 49.1879 122.016C48.8252 122.656 48.3185 123.163 47.6679 123.536C47.0172 123.899 46.2812 124.08 45.4599 124.08ZM45.4599 123.072C46.0679 123.072 46.6065 122.939 47.0759 122.672C47.5452 122.395 47.9132 122.011 48.1799 121.52C48.4572 121.019 48.5959 120.443 48.5959 119.792C48.5959 119.131 48.4572 118.555 48.1799 118.064C47.9132 117.573 47.5452 117.195 47.0759 116.928C46.6065 116.651 46.0732 116.512 45.4759 116.512C44.8785 116.512 44.3452 116.651 43.8759 116.928C43.4065 117.195 43.0332 117.573 42.7559 118.064C42.4785 118.555 42.3399 119.131 42.3399 119.792C42.3399 120.443 42.4785 121.019 42.7559 121.52C43.0332 122.011 43.4065 122.395 43.8759 122.672C44.3452 122.939 44.8732 123.072 45.4599 123.072ZM55.3311 127.184C54.5631 127.184 53.8271 127.072 53.1231 126.848C52.4191 126.624 51.8485 126.304 51.4111 125.888L51.9871 125.024C52.3818 125.376 52.8671 125.653 53.4431 125.856C54.0298 126.069 54.6485 126.176 55.2991 126.176C56.3658 126.176 57.1498 125.925 57.6511 125.424C58.1525 124.933 58.4031 124.165 58.4031 123.12V121.024L58.5631 119.584L58.4511 118.144V115.6H59.5391V122.976C59.5391 124.427 59.1818 125.488 58.4671 126.16C57.7631 126.843 56.7178 127.184 55.3311 127.184ZM55.1231 123.68C54.3231 123.68 53.6031 123.509 52.9631 123.168C52.3231 122.816 51.8165 122.331 51.4431 121.712C51.0805 121.093 50.8991 120.384 50.8991 119.584C50.8991 118.784 51.0805 118.08 51.4431 117.472C51.8165 116.853 52.3231 116.373 52.9631 116.032C53.6031 115.691 54.3231 115.52 55.1231 115.52C55.8698 115.52 56.5418 115.675 57.1391 115.984C57.7365 116.293 58.2111 116.752 58.5631 117.36C58.9151 117.968 59.0911 118.709 59.0911 119.584C59.0911 120.459 58.9151 121.2 58.5631 121.808C58.2111 122.416 57.7365 122.88 57.1391 123.2C56.5418 123.52 55.8698 123.68 55.1231 123.68ZM55.2351 122.672C55.8538 122.672 56.4031 122.544 56.8831 122.288C57.3631 122.021 57.7418 121.659 58.0191 121.2C58.2965 120.731 58.4351 120.192 58.4351 119.584C58.4351 118.976 58.2965 118.443 58.0191 117.984C57.7418 117.525 57.3631 117.168 56.8831 116.912C56.4031 116.645 55.8538 116.512 55.2351 116.512C54.6271 116.512 54.0778 116.645 53.5871 116.912C53.1071 117.168 52.7285 117.525 52.4511 117.984C52.1845 118.443 52.0511 118.976 52.0511 119.584C52.0511 120.192 52.1845 120.731 52.4511 121.2C52.7285 121.659 53.1071 122.021 53.5871 122.288C54.0778 122.544 54.6271 122.672 55.2351 122.672ZM62.3802 124V115.6H63.5162V124H62.3802ZM62.9562 113.744C62.7216 113.744 62.5242 113.664 62.3642 113.504C62.2042 113.344 62.1242 113.152 62.1242 112.928C62.1242 112.704 62.2042 112.517 62.3642 112.368C62.5242 112.208 62.7216 112.128 62.9562 112.128C63.1909 112.128 63.3882 112.203 63.5482 112.352C63.7082 112.501 63.7882 112.688 63.7882 112.912C63.7882 113.147 63.7082 113.344 63.5482 113.504C63.3989 113.664 63.2016 113.744 62.9562 113.744ZM70.6451 115.52C71.3278 115.52 71.9251 115.653 72.4371 115.92C72.9598 116.176 73.3651 116.571 73.6531 117.104C73.9518 117.637 74.1011 118.309 74.1011 119.12V124H72.9651V119.232C72.9651 118.347 72.7411 117.68 72.2931 117.232C71.8558 116.773 71.2371 116.544 70.4371 116.544C69.8398 116.544 69.3171 116.667 68.8691 116.912C68.4318 117.147 68.0905 117.493 67.8451 117.952C67.6105 118.4 67.4931 118.944 67.4931 119.584V124H66.3571V115.6H67.4451V117.904L67.2691 117.472C67.5358 116.864 67.9625 116.389 68.5491 116.048C69.1358 115.696 69.8345 115.52 70.6451 115.52ZM82.4291 124L79.2611 115.6H80.3491L83.2291 123.392H82.7331L85.6931 115.6H86.6691L89.5971 123.392H89.1011L92.0291 115.6H93.0691L89.8851 124H88.8131L85.9971 116.672H86.3331L83.5011 124H82.4291ZM94.4596 124V115.6H95.5956V124H94.4596ZM95.0356 113.744C94.801 113.744 94.6036 113.664 94.4436 113.504C94.2836 113.344 94.2036 113.152 94.2036 112.928C94.2036 112.704 94.2836 112.517 94.4436 112.368C94.6036 112.208 94.801 112.128 95.0356 112.128C95.2703 112.128 95.4676 112.203 95.6276 112.352C95.7876 112.501 95.8676 112.688 95.8676 112.912C95.8676 113.147 95.7876 113.344 95.6276 113.504C95.4783 113.664 95.281 113.744 95.0356 113.744ZM101.093 124.08C100.303 124.08 99.6952 123.867 99.2685 123.44C98.8418 123.013 98.6285 122.411 98.6285 121.632V113.744H99.7645V121.568C99.7645 122.059 99.8872 122.437 100.133 122.704C100.389 122.971 100.751 123.104 101.221 123.104C101.722 123.104 102.138 122.96 102.469 122.672L102.869 123.488C102.645 123.691 102.373 123.84 102.053 123.936C101.743 124.032 101.423 124.08 101.093 124.08ZM97.1245 116.544V115.6H102.325V116.544H97.1245ZM108.905 115.52C109.587 115.52 110.185 115.653 110.697 115.92C111.219 116.176 111.625 116.571 111.913 117.104C112.211 117.637 112.361 118.309 112.361 119.12V124H111.225V119.232C111.225 118.347 111.001 117.68 110.553 117.232C110.115 116.773 109.497 116.544 108.697 116.544C108.099 116.544 107.577 116.667 107.129 116.912C106.691 117.147 106.35 117.493 106.105 117.952C105.87 118.4 105.753 118.944 105.753 119.584V124H104.617V112.128H105.753V117.904L105.529 117.472C105.795 116.864 106.222 116.389 106.809 116.048C107.395 115.696 108.094 115.52 108.905 115.52ZM46.3478 137.224H52.2678V138.248H46.3478V137.224ZM46.4758 143H45.2918V131.8H52.9718V132.824H46.4758V143ZM59.7771 143V141.144L59.7291 140.84V137.736C59.7291 137.021 59.5264 136.472 59.1211 136.088C58.7264 135.704 58.1344 135.512 57.3451 135.512C56.8011 135.512 56.2837 135.603 55.7931 135.784C55.3024 135.965 54.8864 136.205 54.5451 136.504L54.0331 135.656C54.4597 135.293 54.9717 135.016 55.5691 134.824C56.1664 134.621 56.7957 134.52 57.4571 134.52C58.5451 134.52 59.3824 134.792 59.9691 135.336C60.5664 135.869 60.8651 136.685 60.8651 137.784V143H59.7771ZM56.8811 143.08C56.2517 143.08 55.7024 142.979 55.2331 142.776C54.7744 142.563 54.4224 142.275 54.1771 141.912C53.9317 141.539 53.8091 141.112 53.8091 140.632C53.8091 140.195 53.9104 139.8 54.1131 139.448C54.3264 139.085 54.6677 138.797 55.1371 138.584C55.6171 138.36 56.2571 138.248 57.0571 138.248H59.9531V139.096H57.0891C56.2784 139.096 55.7131 139.24 55.3931 139.528C55.0837 139.816 54.9291 140.173 54.9291 140.6C54.9291 141.08 55.1157 141.464 55.4891 141.752C55.8624 142.04 56.3851 142.184 57.0571 142.184C57.6971 142.184 58.2464 142.04 58.7051 141.752C59.1744 141.453 59.5157 141.027 59.7291 140.472L59.9851 141.256C59.7717 141.811 59.3984 142.253 58.8651 142.584C58.3424 142.915 57.6811 143.08 56.8811 143.08ZM67.1186 143.08C66.2866 143.08 65.5399 142.899 64.8786 142.536C64.2279 142.163 63.7159 141.656 63.3426 141.016C62.9692 140.365 62.7826 139.624 62.7826 138.792C62.7826 137.949 62.9692 137.208 63.3426 136.568C63.7159 135.928 64.2279 135.427 64.8786 135.064C65.5399 134.701 66.2866 134.52 67.1186 134.52C67.8332 134.52 68.4786 134.659 69.0546 134.936C69.6306 135.213 70.0839 135.629 70.4146 136.184L69.5666 136.76C69.2786 136.333 68.9212 136.019 68.4946 135.816C68.0679 135.613 67.6039 135.512 67.1026 135.512C66.5052 135.512 65.9666 135.651 65.4866 135.928C65.0066 136.195 64.6279 136.573 64.3506 137.064C64.0732 137.555 63.9346 138.131 63.9346 138.792C63.9346 139.453 64.0732 140.029 64.3506 140.52C64.6279 141.011 65.0066 141.395 65.4866 141.672C65.9666 141.939 66.5052 142.072 67.1026 142.072C67.6039 142.072 68.0679 141.971 68.4946 141.768C68.9212 141.565 69.2786 141.256 69.5666 140.84L70.4146 141.416C70.0839 141.96 69.6306 142.376 69.0546 142.664C68.4786 142.941 67.8332 143.08 67.1186 143.08ZM75.7536 143.08C74.8789 143.08 74.1109 142.899 73.4496 142.536C72.7882 142.163 72.2709 141.656 71.8976 141.016C71.5242 140.365 71.3376 139.624 71.3376 138.792C71.3376 137.96 71.5136 137.224 71.8656 136.584C72.2282 135.944 72.7189 135.443 73.3376 135.08C73.9669 134.707 74.6709 134.52 75.4496 134.52C76.2389 134.52 76.9376 134.701 77.5456 135.064C78.1642 135.416 78.6496 135.917 79.0016 136.568C79.3536 137.208 79.5296 137.949 79.5296 138.792C79.5296 138.845 79.5242 138.904 79.5136 138.968C79.5136 139.021 79.5136 139.08 79.5136 139.144H72.2016V138.296H78.9056L78.4576 138.632C78.4576 138.024 78.3242 137.485 78.0576 137.016C77.8016 136.536 77.4496 136.163 77.0016 135.896C76.5536 135.629 76.0362 135.496 75.4496 135.496C74.8736 135.496 74.3562 135.629 73.8976 135.896C73.4389 136.163 73.0816 136.536 72.8256 137.016C72.5696 137.496 72.4416 138.045 72.4416 138.664V138.84C72.4416 139.48 72.5802 140.045 72.8576 140.536C73.1456 141.016 73.5402 141.395 74.0416 141.672C74.5536 141.939 75.1349 142.072 75.7856 142.072C76.2976 142.072 76.7722 141.981 77.2096 141.8C77.6576 141.619 78.0416 141.341 78.3616 140.968L79.0016 141.704C78.6282 142.152 78.1589 142.493 77.5936 142.728C77.0389 142.963 76.4256 143.08 75.7536 143.08ZM85.6293 143V131.8H86.8133V143H85.6293ZM90.1374 143V131.8H94.6974C95.8921 131.8 96.9374 132.04 97.8334 132.52C98.7401 132.989 99.4441 133.645 99.9454 134.488C100.447 135.331 100.697 136.301 100.697 137.4C100.697 138.499 100.447 139.469 99.9454 140.312C99.4441 141.155 98.7401 141.816 97.8334 142.296C96.9374 142.765 95.8921 143 94.6974 143H90.1374ZM91.3214 141.976H94.6334C95.6254 141.976 96.4841 141.784 97.2094 141.4C97.9454 141.005 98.5161 140.467 98.9214 139.784C99.3268 139.091 99.5294 138.296 99.5294 137.4C99.5294 136.493 99.3268 135.699 98.9214 135.016C98.5161 134.333 97.9454 133.8 97.2094 133.416C96.4841 133.021 95.6254 132.824 94.6334 132.824H91.3214V141.976Z" fill="white"/>
</svg>
