<svg width="21" height="22" viewBox="0 0 21 22" fill="none" xmlns="http://www.w3.org/2000/svg">
<path d="M10.5135 18.3118C7.26452 18.3118 4.2191 16.5065 2.81038 13.6225C1.84952 11.653 1.7355 9.43344 2.50907 7.38578C3.28265 5.33812 4.83794 3.69684 6.88994 2.77461C11.1324 0.859815 16.2054 2.61831 18.1923 6.69019C19.8453 10.0665 18.9007 14.0758 15.9123 16.4439C15.8145 16.5221 15.668 16.5065 15.5865 16.4127C15.5051 16.3189 15.5214 16.1782 15.6191 16.1C18.4447 13.857 19.3322 10.0665 17.777 6.87775C15.896 3.02471 11.0998 1.36002 7.08539 3.17321C5.13924 4.04855 3.66536 5.59603 2.94064 7.53428C2.20779 9.47252 2.31365 11.5671 3.22565 13.435C4.74022 16.5377 8.2661 18.3197 11.792 17.7726C11.9141 17.7491 12.0362 17.8351 12.0607 17.9523C12.0851 18.0695 11.9955 18.1868 11.8734 18.2102C11.4255 18.2806 10.9695 18.3118 10.5217 18.3118H10.5135Z" fill="white"/>
<mask id="path-2-inside-1_1179_7945" fill="white">
<path d="M9.60946 19.9921C9.53618 19.9921 9.47105 19.9608 9.42219 19.8983C9.34891 19.7967 9.36519 19.6638 9.47105 19.5857L11.7022 18.0069L9.45475 16.4438C9.34889 16.3735 9.32446 16.2329 9.40589 16.1313C9.47918 16.0297 9.62577 16.0062 9.73163 16.0844L12.2396 17.8272C12.2966 17.8663 12.3373 17.9366 12.3373 18.0069C12.3373 18.0773 12.3048 18.1476 12.2396 18.1867L9.75605 19.953C9.71534 19.9843 9.66647 19.9999 9.61761 19.9999L9.60946 19.9921Z"/>
</mask>
<path d="M9.60946 19.9921C9.53618 19.9921 9.47105 19.9608 9.42219 19.8983C9.34891 19.7967 9.36519 19.6638 9.47105 19.5857L11.7022 18.0069L9.45475 16.4438C9.34889 16.3735 9.32446 16.2329 9.40589 16.1313C9.47918 16.0297 9.62577 16.0062 9.73163 16.0844L12.2396 17.8272C12.2966 17.8663 12.3373 17.9366 12.3373 18.0069C12.3373 18.0773 12.3048 18.1476 12.2396 18.1867L9.75605 19.953C9.71534 19.9843 9.66647 19.9999 9.61761 19.9999L9.60946 19.9921Z" fill="white"/>
<path d="M9.60946 19.9921L10.2997 19.2685L10.0099 18.9921H9.60946V19.9921ZM9.42219 19.8983L8.61116 20.4833L8.6224 20.4989L8.63423 20.514L9.42219 19.8983ZM9.47105 19.5857L8.89343 18.7694L8.8852 18.7752L8.87709 18.7812L9.47105 19.5857ZM11.7022 18.0069L12.2798 18.8233L13.4434 17.9999L12.2732 17.186L11.7022 18.0069ZM9.45475 16.4438L10.0257 15.6229L10.017 15.6168L10.0082 15.611L9.45475 16.4438ZM9.40589 16.1313L10.1862 16.7566L10.2021 16.7368L10.2169 16.7163L9.40589 16.1313ZM9.73163 16.0844L9.13767 16.8889L9.1492 16.8974L9.16097 16.9056L9.73163 16.0844ZM12.2396 17.8272L11.669 18.6484L11.6742 18.652L12.2396 17.8272ZM12.2396 18.1867L11.7252 17.3291L11.6918 17.3492L11.66 17.3718L12.2396 18.1867ZM9.75605 19.953L9.17648 19.1381L9.16156 19.1487L9.14704 19.1598L9.75605 19.953ZM9.61761 19.9999L8.92737 20.7235L9.21714 20.9999H9.61761V19.9999ZM9.60946 18.9921C9.71834 18.9921 9.83685 19.0162 9.95086 19.0727C10.0644 19.129 10.1503 19.2059 10.2102 19.2826L8.63423 20.514C8.86661 20.8114 9.21876 20.9921 9.60946 20.9921V18.9921ZM10.2332 19.3133C10.3404 19.4619 10.4004 19.6628 10.3689 19.8779C10.3369 20.097 10.2176 20.2775 10.065 20.3902L8.87709 18.7812C8.31575 19.1956 8.22808 19.9522 8.61116 20.4833L10.2332 19.3133ZM10.0487 20.402L12.2798 18.8233L11.1246 17.1906L8.89343 18.7694L10.0487 20.402ZM12.2732 17.186L10.0257 15.6229L8.88377 17.2648L11.1312 18.8279L12.2732 17.186ZM10.0082 15.611C10.3818 15.8592 10.4795 16.3907 10.1862 16.7566L8.62558 15.5059C8.16944 16.075 8.31601 16.8878 8.90131 17.2767L10.0082 15.611ZM10.2169 16.7163C9.95669 17.077 9.46867 17.1332 9.13767 16.8889L10.3256 15.2799C9.78287 14.8792 9.00167 14.9823 8.59486 15.5463L10.2169 16.7163ZM9.16097 16.9056L11.669 18.6484L12.8103 17.006L10.3023 15.2632L9.16097 16.9056ZM11.6742 18.652C11.5673 18.5787 11.4886 18.4866 11.4349 18.3896C11.3811 18.2924 11.3373 18.1624 11.3373 18.0069H13.3373C13.3373 17.5763 13.1079 17.21 12.8051 17.0024L11.6742 18.652ZM11.3373 18.0069C11.3373 17.7812 11.4446 17.4975 11.7252 17.3291L12.754 19.0442C13.1649 18.7977 13.3373 18.3734 13.3373 18.0069H11.3373ZM11.66 17.3718L9.17648 19.1381L10.3356 20.7679L12.8192 19.0016L11.66 17.3718ZM9.14704 19.1598C9.28684 19.0525 9.45368 18.9999 9.61761 18.9999V20.9999C9.87926 20.9999 10.1438 20.916 10.3651 20.7462L9.14704 19.1598ZM10.3079 19.2763L10.2997 19.2685L8.91922 20.7157L8.92737 20.7235L10.3079 19.2763Z" fill="white" mask="url(#path-2-inside-1_1179_7945)"/>
</svg>
