<svg width="22" height="21" viewBox="0 0 22 21" fill="none" xmlns="http://www.w3.org/2000/svg">
<path d="M21.1409 20.476H0.87262C0.772825 20.476 0.68302 20.4261 0.633122 20.3363C0.583225 20.2564 0.573236 20.1466 0.623133 20.0568L10.7523 0.257564C10.8521 0.067954 11.1615 0.067954 11.2513 0.257564L21.3804 20.0568C21.4203 20.1466 21.4203 20.2464 21.3704 20.3363C21.3205 20.4161 21.2307 20.476 21.1309 20.476H21.1409ZM1.3317 19.9171H20.6719L11.0018 1.026L1.3317 19.9171Z" fill="#3678B1"/>
<path d="M11.0021 14.5382C10.8424 14.5382 10.7227 14.4085 10.7227 14.2588V6.24527C10.7227 6.0856 10.8524 5.96582 11.0021 5.96582C11.1518 5.96582 11.2815 6.09558 11.2815 6.24527V14.2588C11.2815 14.4184 11.1518 14.5382 11.0021 14.5382Z" fill="#3678B1"/>
<path d="M10.9519 17.8514C10.3232 17.8514 9.82422 17.3425 9.82422 16.7238C9.82422 16.105 10.3332 15.5961 10.9519 15.5961C11.5706 15.5961 12.0795 16.105 12.0795 16.7238C12.0795 17.3425 11.5706 17.8514 10.9519 17.8514ZM10.9519 16.1549C10.6425 16.1549 10.3831 16.4044 10.3831 16.7238C10.3831 17.0431 10.6326 17.2926 10.9519 17.2926C11.2712 17.2926 11.5207 17.0431 11.5207 16.7238C11.5207 16.4044 11.2712 16.1549 10.9519 16.1549Z" fill="#3678B1"/>
</svg>
