<svg width="25" height="25" fill="none" xmlns="http://www.w3.org/2000/svg"><path d="M18.208 9.684c-.15-.05-.31.02-.36.17-.05.15.02.31.17.36 1.38.51 2.69 1.2 3.89 2.05-3.1 2.23-6.88 3.33-10.7 3.12-.16 0-.29.11-.3.27 0 .16.11.29.27.3a17.256 17.256 0 0 0 11.38-3.46c.07-.05.11-.14.11-.23s-.04-.17-.11-.23c-1.33-.99-2.79-1.78-4.34-2.35h-.01zM8.438 15.564c.13 0 .25-.09.28-.22.03-.15-.06-.3-.21-.34-2.21-.49-4.26-1.42-6.1-2.74a16.98 16.98 0 0 1 13.18-2.75c.15.03.3-.07.33-.22.03-.15-.07-.3-.22-.33-4.8-.99-9.83.09-13.8 2.97l-.14.1c-.07.05-.12.14-.12.23s.04.17.11.23c1.98 1.5 4.21 2.53 6.63 3.07h.06z" fill="#fff"/><path d="M14.458 12.284c0 1.27-1.03 2.31-2.31 2.31a.28.28 0 0 0-.28.28c0 .15.13.28.28.28 1.58 0 2.87-1.29 2.87-2.87a.28.28 0 0 0-.28-.28c-.15 0-.28.13-.28.28zM12.148 9.974c.68 0 1.32.3 1.76.82a.284.284 0 0 0 .43-.37 2.872 2.872 0 1 0-4.38 3.72c.06.07.14.1.22.1.07 0 .13-.02.18-.07.12-.1.13-.28.03-.4-.36-.42-.56-.95-.56-1.5 0-1.27 1.03-2.31 2.31-2.31l.01.01zM22.598 4.564a.284.284 0 0 0-.4-.03l-17.85 15.37c-.12.1-.13.28-.03.4.06.06.14.1.21.1.07 0 .13-.02.18-.07l17.85-15.37c.12-.1.13-.28.03-.4h.01zM22.878 9.694c-1.12-.56-2.27-1.03-3.41-1.41a.283.283 0 0 0-.36.18c-.05.15.03.31.18.36 1.12.37 2.24.83 3.33 1.38.04.02.08.03.13.03a.285.285 0 0 0 .12-.54h.01zM2.108 10.234c.05 0 .11-.01.15-.04.06-.04 6.24-3.92 14.82-1.98.15.03.3-.06.34-.21.03-.15-.06-.3-.21-.34-8.8-1.99-15.19 2.02-15.25 2.06-.13.08-.17.26-.09.39.05.08.15.13.24.13v-.01z" fill="#fff"/></svg>