<svg width="25" height="25" fill="none" xmlns="http://www.w3.org/2000/svg"><path d="m1.594 12.257-.14.1c-.07.05-.12.14-.12.23s.04.17.11.23c3.06 2.31 6.74 3.47 10.41 3.47a17.3 17.3 0 0 0 10.41-3.47c.07-.05.11-.14.11-.23a.3.3 0 0 0-.11-.23 17.387 17.387 0 0 0-20.67-.1zm.51.33a16.826 16.826 0 0 1 19.51 0c-5.8 4.17-13.71 4.17-19.51 0z" fill="#fff"/><path d="M8.984 12.617c0 1.58 1.29 2.87 2.87 2.87s2.87-1.29 2.87-2.87-1.29-2.87-2.87-2.87-2.87 1.29-2.87 2.87zm5.18 0a2.311 2.311 0 1 1-4.622-.002 2.311 2.311 0 0 1 4.622.002z" fill="#fff"/><path d="M22.384 10.017c-11.63-5.79-20.83-.04-20.92.02-.13.08-.17.26-.09.39.08.13.26.17.39.09.02-.01 2.27-1.43 5.89-2.14 3.33-.65 8.55-.8 14.47 2.15.04.02.08.03.13.03a.285.285 0 0 0 .12-.54h.01z" fill="#fff"/></svg>