<svg width="25" height="24" fill="none" xmlns="http://www.w3.org/2000/svg"><path fill-rule="evenodd" clip-rule="evenodd" d="M12.5 1.25C6.563 1.25 1.75 6.063 1.75 12S6.563 22.75 12.5 22.75 23.25 17.937 23.25 12 18.437 1.25 12.5 1.25zM1.25 12C1.25 5.787 6.287.75 12.5.75S23.75 5.787 23.75 12 18.713 23.25 12.5 23.25 1.25 18.213 1.25 12z" fill="#fff"/><path d="M16.055 13.537c-.113-.052-.27-.029-.34.046l-3.288 3.221V5.744c0-.092-.113-.16-.243-.16s-.244.074-.244.16V16.85l-3.575-3.14c-.079-.075-.235-.086-.348-.035-.113.052-.13.156-.052.23l4.018 3.532.01.005a.172.172 0 0 0 .06.03c.009 0 .017.005.026.01a.33.33 0 0 0 .105.018s.052 0 .078-.012h.017a.219.219 0 0 0 .07-.028l.009-.006c0-.006.017-.012.026-.017l3.74-3.664c.079-.075.044-.178-.07-.224v-.012z" fill="#fff"/></svg>