<svg width="16" height="21" viewBox="0 0 16 21" fill="none" xmlns="http://www.w3.org/2000/svg">
<path d="M15.55 20.34H0.279999C0.119999 20.34 0 20.21 0 20.06V7.78998C0 7.62998 0.129999 7.51001 0.279999 7.51001H15.55C15.71 7.51001 15.83 7.63998 15.83 7.78998V20.06C15.83 20.22 15.7 20.34 15.55 20.34ZM0.559998 19.78H15.26V8.08002H0.559998V19.78Z" fill="white"/>
<mask id="path-2-inside-1_1816_7899" fill="white">
<path d="M12.9702 8.08002C12.8102 8.08002 12.6902 7.94999 12.6902 7.79999V5.23999C12.6902 2.65999 10.5202 0.559998 7.8602 0.559998C5.2002 0.559998 3.03021 2.65999 3.03021 5.23999V7.79999C3.03021 7.95999 2.90021 8.08002 2.75021 8.08002C2.60021 8.08002 2.47021 7.94999 2.47021 7.79999V5.23999C2.47021 2.34999 4.89021 0 7.87021 0C10.8502 0 13.2702 2.34999 13.2702 5.23999V7.79999C13.2702 7.95999 13.1402 8.08002 12.9902 8.08002H12.9702Z"/>
</mask>
<path d="M12.9702 8.08002C12.8102 8.08002 12.6902 7.94999 12.6902 7.79999V5.23999C12.6902 2.65999 10.5202 0.559998 7.8602 0.559998C5.2002 0.559998 3.03021 2.65999 3.03021 5.23999V7.79999C3.03021 7.95999 2.90021 8.08002 2.75021 8.08002C2.60021 8.08002 2.47021 7.94999 2.47021 7.79999V5.23999C2.47021 2.34999 4.89021 0 7.87021 0C10.8502 0 13.2702 2.34999 13.2702 5.23999V7.79999C13.2702 7.95999 13.1402 8.08002 12.9902 8.08002H12.9702Z" fill="white"/>
<path d="M12.9702 7.08002C13.3858 7.08002 13.6902 7.42127 13.6902 7.79999H11.6902C11.6902 8.47871 12.2347 9.08002 12.9702 9.08002V7.08002ZM13.6902 7.79999V5.23999H11.6902V7.79999H13.6902ZM13.6902 5.23999C13.6902 2.07784 11.0421 -0.440002 7.8602 -0.440002V1.56C9.99826 1.56 11.6902 3.24214 11.6902 5.23999H13.6902ZM7.8602 -0.440002C4.67825 -0.440002 2.03021 2.07785 2.03021 5.23999H4.03021C4.03021 3.24213 5.72214 1.56 7.8602 1.56V-0.440002ZM2.03021 5.23999V7.79999H4.03021V5.23999H2.03021ZM2.03021 7.79999C2.03021 7.38471 2.3712 7.08002 2.75021 7.08002V9.08002C3.42922 9.08002 4.03021 8.53526 4.03021 7.79999H2.03021ZM2.75021 7.08002C2.96725 7.08002 3.14467 7.17273 3.26112 7.2892C3.37757 7.40566 3.47021 7.58304 3.47021 7.79999H1.47021C1.47021 8.50213 2.04779 9.08002 2.75021 9.08002V7.08002ZM3.47021 7.79999V5.23999H1.47021V7.79999H3.47021ZM3.47021 5.23999C3.47021 2.93021 5.41414 1 7.87021 1V-1C4.36628 -1 1.47021 1.76977 1.47021 5.23999H3.47021ZM7.87021 1C10.3263 1 12.2702 2.93021 12.2702 5.23999H14.2702C14.2702 1.76977 11.3741 -1 7.87021 -1V1ZM12.2702 5.23999V7.79999H14.2702V5.23999H12.2702ZM12.2702 7.79999C12.2702 7.38471 12.6112 7.08002 12.9902 7.08002V9.08002C13.6692 9.08002 14.2702 8.53526 14.2702 7.79999H12.2702ZM12.9902 7.08002H12.9702V9.08002H12.9902V7.08002Z" fill="white" mask="url(#path-2-inside-1_1816_7899)"/>
<path d="M7.90988 16.08C7.74988 16.08 7.62988 15.95 7.62988 15.8V12.07C7.62988 11.91 7.75988 11.79 7.90988 11.79C8.05988 11.79 8.18988 11.92 8.18988 12.07V15.8C8.18988 15.96 8.05988 16.08 7.90988 16.08Z" fill="white"/>
</svg>
