<svg width="24" height="24" viewBox="0 0 24 24" fill="none" xmlns="http://www.w3.org/2000/svg">
<path d="M13.0752 22.145H10.9152C10.4952 22.145 10.1552 21.8049 10.1552 21.3849V20.465C10.1552 20.025 9.8752 19.635 9.4552 19.485C9.1252 19.375 8.80523 19.235 8.48523 19.085C8.09523 18.895 7.63521 18.965 7.33521 19.265L6.66522 19.935C6.37522 20.225 5.87522 20.225 5.59521 19.935L4.06519 18.405C3.76519 18.105 3.76519 17.625 4.06519 17.325L4.74524 16.645C5.04524 16.345 5.11523 15.885 4.92523 15.505C4.77523 15.195 4.63521 14.865 4.52521 14.535C4.38521 14.115 3.99524 13.835 3.55524 13.835H2.60522C2.18522 13.835 1.84521 13.495 1.84521 13.075V10.915C1.84521 10.495 2.18522 10.155 2.60522 10.155H3.5752C4.0052 10.155 4.39522 9.87497 4.53522 9.46497C4.64522 9.14497 4.77518 8.82495 4.93518 8.51495C5.12518 8.12495 5.05519 7.66499 4.75519 7.36499L4.05524 6.66498C3.91524 6.52498 3.83521 6.335 3.83521 6.125C3.83521 5.915 3.91524 5.73496 4.05524 5.58496L5.58521 4.05499C5.87521 3.76499 6.37521 3.76499 6.65521 4.05499L7.36523 4.76495C7.66523 5.06495 8.1252 5.13495 8.5152 4.94495C8.8252 4.79495 9.14521 4.66499 9.46521 4.55499C9.87521 4.41499 10.1552 4.03498 10.1552 3.60498V2.61499C10.1552 2.19499 10.4952 1.85498 10.9152 1.85498H13.0752C13.4952 1.85498 13.8352 2.19499 13.8352 2.61499V3.60498C13.8352 4.03498 14.1152 4.41499 14.5252 4.55499C14.8452 4.66499 15.1652 4.79495 15.4752 4.94495C15.8652 5.13495 16.3252 5.06495 16.6252 4.76495L17.3352 4.05499C17.6352 3.75499 18.1152 3.75499 18.4152 4.05499L19.9452 5.58496C20.0852 5.72496 20.1652 5.915 20.1652 6.125C20.1652 6.335 20.0852 6.51498 19.9452 6.66498L19.2452 7.36499C18.9452 7.66499 18.8752 8.12495 19.0652 8.51495C19.2152 8.82495 19.3552 9.14497 19.4652 9.46497C19.6052 9.87497 19.9952 10.155 20.4252 10.155H21.3952C21.8152 10.155 22.1552 10.495 22.1552 10.915V13.075C22.1552 13.495 21.8152 13.835 21.3952 13.835H20.4452C20.0052 13.835 19.6252 14.115 19.4752 14.535C19.3652 14.865 19.2252 15.185 19.0752 15.505C18.8852 15.885 18.9552 16.345 19.2552 16.645L19.9352 17.325C20.2352 17.625 20.2352 18.105 19.9352 18.405L18.4052 19.935C18.1052 20.235 17.6252 20.235 17.3252 19.935L16.6552 19.265C16.3552 18.965 15.8952 18.895 15.5052 19.085C15.1952 19.245 14.8652 19.375 14.5352 19.485C14.1152 19.625 13.8352 20.025 13.8352 20.465V21.3849C13.8352 21.8049 13.4952 22.145 13.0752 22.145ZM8.03522 18.405C8.27522 18.405 8.51523 18.455 8.73523 18.575C9.02523 18.715 9.32519 18.8449 9.63519 18.9449C10.2852 19.1649 10.7252 19.775 10.7252 20.455V21.375C10.7252 21.485 10.8152 21.565 10.9152 21.565H13.0752C13.1852 21.565 13.2652 21.475 13.2652 21.375V20.455C13.2652 19.775 13.7052 19.1649 14.3552 18.9449C14.6652 18.8449 14.9652 18.715 15.2552 18.575C15.8552 18.275 16.5852 18.385 17.0552 18.865L17.7252 19.535C17.8052 19.615 17.9252 19.615 17.9952 19.535L19.5252 18.005C19.5252 18.005 19.5852 17.915 19.5852 17.865C19.5852 17.815 19.5652 17.765 19.5252 17.725L18.8452 17.045C18.3752 16.575 18.2552 15.855 18.5552 15.245C18.6952 14.955 18.8252 14.655 18.9252 14.345C19.1452 13.695 19.7452 13.265 20.4252 13.265H21.3752C21.4852 13.265 21.5652 13.175 21.5652 13.075V10.915C21.5652 10.805 21.4752 10.725 21.3752 10.725H20.4052C19.7252 10.725 19.1252 10.295 18.9052 9.64496C18.8052 9.34496 18.6752 9.04495 18.5352 8.76495C18.2352 8.16495 18.3452 7.43497 18.8252 6.96497L19.5252 6.26495C19.5252 6.26495 19.5852 6.175 19.5852 6.125C19.5852 6.075 19.5652 6.02499 19.5252 5.98499L17.9952 4.45496C17.9152 4.37496 17.7952 4.37496 17.7252 4.45496L17.0152 5.16498C16.5452 5.63498 15.8252 5.75496 15.2152 5.45496C14.9252 5.31496 14.6352 5.19496 14.3352 5.08496C13.6952 4.86496 13.2652 4.26497 13.2652 3.59497V2.60498C13.2652 2.49498 13.1752 2.41498 13.0752 2.41498H10.9152C10.8052 2.41498 10.7252 2.50498 10.7252 2.60498V3.59497C10.7252 4.26497 10.2952 4.86496 9.65521 5.08496C9.35521 5.18496 9.05521 5.30496 8.77521 5.45496C8.17521 5.75496 7.44522 5.63498 6.97522 5.16498L6.2652 4.45496C6.1952 4.38496 6.06524 4.38496 5.99524 4.45496L4.46521 5.98499C4.46521 5.98499 4.40521 6.075 4.40521 6.125C4.40521 6.175 4.42521 6.22495 4.46521 6.26495L5.16522 6.96497C5.63522 7.43497 5.7552 8.16495 5.4552 8.76495C5.3152 9.04495 5.1852 9.34496 5.08521 9.64496C4.86521 10.285 4.26521 10.725 3.58521 10.725H2.61523C2.50523 10.725 2.42523 10.815 2.42523 10.915V13.075C2.42523 13.185 2.51523 13.265 2.61523 13.265H3.56519C4.24519 13.265 4.84519 13.705 5.06519 14.345C5.16519 14.655 5.29518 14.955 5.43518 15.245C5.73518 15.845 5.6152 16.565 5.1452 17.045L4.46521 17.725C4.46521 17.725 4.40521 17.815 4.40521 17.865C4.40521 17.915 4.42521 17.965 4.46521 18.005L5.99524 19.535C6.06524 19.605 6.1952 19.605 6.2652 19.535L6.93518 18.865C7.23518 18.565 7.63522 18.415 8.03522 18.415V18.405Z" fill="white"/>
<path d="M11.995 17.665C8.875 17.665 6.33496 15.125 6.33496 12.005C6.33496 8.885 8.875 6.34497 11.995 6.34497C15.115 6.34497 17.655 8.885 17.655 12.005C17.655 15.125 15.115 17.665 11.995 17.665ZM11.995 6.90497C9.185 6.90497 6.89496 9.195 6.89496 12.005C6.89496 14.815 9.185 17.105 11.995 17.105C14.805 17.105 17.095 14.815 17.095 12.005C17.095 9.195 14.805 6.90497 11.995 6.90497Z" fill="white"/>
</svg>
