<svg width="22" height="19" viewBox="0 0 22 19" fill="none" xmlns="http://www.w3.org/2000/svg">
<path d="M20.7446 18.8346H0.694519C0.534519 18.8346 0.414551 18.7046 0.414551 18.5546C0.414551 18.4046 0.544519 18.2745 0.694519 18.2745H20.7446C20.9046 18.2745 21.0245 18.4046 21.0245 18.5546C21.0245 18.7046 20.8946 18.8346 20.7446 18.8346Z" fill="white"/>
<path d="M5.93463 16.6346C5.88463 16.6346 5.82461 16.6146 5.78461 16.5846C5.70461 16.5346 5.6646 16.4546 5.6546 16.3646L5.45459 13.0846C5.45459 13.0246 5.46458 12.9646 5.50458 12.9146L13.5046 0.574595C13.5946 0.444595 13.7646 0.404578 13.8946 0.494578L17.1646 2.61457C17.2246 2.65457 17.2746 2.71457 17.2846 2.79457C17.3046 2.86457 17.2846 2.94459 17.2446 3.00459L9.24463 15.3446C9.21463 15.3946 9.16461 15.4346 9.10461 15.4546L6.03461 16.6146C6.03461 16.6146 5.96463 16.6346 5.93463 16.6346ZM6.0246 13.1546L6.19458 15.9546L8.81458 14.9645L16.6146 2.93458L13.8146 1.12458L6.01459 13.1546H6.0246Z" fill="white"/>
</svg>
