<svg width="25" height="24" viewBox="0 0 25 24" fill="none" xmlns="http://www.w3.org/2000/svg">
<path d="M20.9349 19.9249H4.06494C3.66712 19.9249 3.28559 19.7669 3.00428 19.4856C2.72298 19.2043 2.56494 18.8228 2.56494 18.4249V9.28494C2.56494 8.88712 2.72298 8.50558 3.00428 8.22428C3.28559 7.94298 3.66712 7.78494 4.06494 7.78494H6.72294C6.84795 7.78547 6.96863 7.73915 7.06118 7.65512C7.15373 7.57108 7.21144 7.45542 7.22294 7.33094L7.38894 5.53094C7.39837 5.1403 7.56088 4.76901 7.84145 4.49704C8.12202 4.22507 8.4982 4.0742 8.88894 4.07694H16.1189C16.5168 4.07694 16.8983 4.23498 17.1796 4.51628C17.4609 4.79759 17.6189 5.17912 17.6189 5.57694L17.7829 7.33294C17.7944 7.45742 17.8522 7.57308 17.9447 7.65712C18.0373 7.74115 18.1579 7.78747 18.2829 7.78694H20.9409C21.3388 7.78694 21.7203 7.94498 22.0016 8.22628C22.2829 8.50759 22.4409 8.88912 22.4409 9.28694V18.4269C22.4407 18.6243 22.4015 18.8196 22.3256 19.0017C22.2497 19.1839 22.1387 19.3493 21.9988 19.4884C21.8589 19.6276 21.6929 19.7378 21.5103 19.8127C21.3278 19.8876 21.1323 19.9257 20.9349 19.9249ZM4.06494 8.78494C3.93233 8.78494 3.80516 8.83762 3.71139 8.93139C3.61762 9.02516 3.56494 9.15233 3.56494 9.28494V18.4249C3.56494 18.5575 3.61762 18.6847 3.71139 18.7785C3.80516 18.8723 3.93233 18.9249 4.06494 18.9249H20.9349C21.0675 18.9249 21.1947 18.8723 21.2885 18.7785C21.3823 18.6847 21.4349 18.5575 21.4349 18.4249V9.28494C21.4349 9.15233 21.3823 9.02516 21.2885 8.93139C21.1947 8.83762 21.0675 8.78494 20.9349 8.78494H18.2769C17.9029 8.78503 17.5424 8.6454 17.266 8.39344C16.9896 8.14148 16.8173 7.79535 16.7829 7.42294L16.6169 5.62294C16.6211 5.55399 16.6114 5.48491 16.5883 5.4198C16.5653 5.35469 16.5293 5.29488 16.4827 5.24394C16.436 5.193 16.3796 5.15196 16.3168 5.12327C16.254 5.09458 16.186 5.07883 16.1169 5.07694H8.88494C8.75233 5.07694 8.62516 5.12962 8.53139 5.22339C8.43762 5.31716 8.38494 5.44433 8.38494 5.57694L8.21694 7.42294C8.18253 7.79535 8.01025 8.14148 7.73386 8.39344C7.45748 8.6454 7.09694 8.78503 6.72294 8.78494H4.06494Z" fill="white"/>
<path d="M12.5 17.282C11.7089 17.282 10.9355 17.0474 10.2777 16.6079C9.61993 16.1683 9.10723 15.5436 8.80448 14.8127C8.50173 14.0818 8.42252 13.2775 8.57686 12.5016C8.7312 11.7257 9.11216 11.013 9.67157 10.4536C10.231 9.89415 10.9437 9.51318 11.7196 9.35884C12.4956 9.2045 13.2998 9.28372 14.0307 9.58647C14.7616 9.88922 15.3864 10.4019 15.8259 11.0597C16.2654 11.7175 16.5 12.4909 16.5 13.282C16.5 14.3428 16.0786 15.3603 15.3284 16.1104C14.5783 16.8606 13.5609 17.282 12.5 17.282ZM12.5 10.282C11.9067 10.282 11.3266 10.4579 10.8333 10.7876C10.3399 11.1172 9.95543 11.5858 9.72836 12.1339C9.5013 12.6821 9.44189 13.2853 9.55765 13.8673C9.6734 14.4492 9.95912 14.9837 10.3787 15.4033C10.7982 15.8229 11.3328 16.1086 11.9147 16.2243C12.4967 16.3401 13.0999 16.2807 13.6481 16.0536C14.1962 15.8266 14.6648 15.442 14.9944 14.9487C15.3241 14.4553 15.5 13.8753 15.5 13.282C15.5 12.4863 15.1839 11.7233 14.6213 11.1607C14.0587 10.5981 13.2957 10.282 12.5 10.282Z" fill="white"/>
</svg>
