<svg width="25" height="24" fill="none" xmlns="http://www.w3.org/2000/svg"><path d="M12.5 22c-5.517 0-10-4.483-10-10s4.483-10 10-10 10 4.483 10 10-4.483 10-10 10zm0-19.454c-5.21 0-9.454 4.243-9.454 9.454 0 5.21 4.243 9.454 9.454 9.454 5.21 0 9.454-4.243 9.454-9.454 0-5.21-4.243-9.454-9.454-9.454z" fill="#fff"/><path d="M12.5 18.063a.268.268 0 0 1-.268-.268V6.348c0-.153.125-.268.268-.268.144 0 .268.125.268.268v11.447a.268.268 0 0 1-.268.268z" fill="#fff"/><path d="M18.228 12.335H6.78a.268.268 0 0 1-.268-.268c0-.144.125-.268.268-.268h11.447c.153 0 .268.124.268.268a.274.274 0 0 1-.268.268z" fill="#fff"/></svg>