<svg width="24" height="24" viewBox="0 0 24 24" fill="none" xmlns="http://www.w3.org/2000/svg">
<path d="M1.26196 11.8215L1.12195 11.9215C1.05195 11.9715 1.00195 12.0615 1.00195 12.1515C1.00195 12.2415 1.042 12.3215 1.112 12.3815C4.172 14.6915 7.85197 15.8515 11.522 15.8515C15.192 15.8515 18.8619 14.6915 21.9319 12.3815C22.0019 12.3315 22.042 12.2415 22.042 12.1515C22.042 12.0615 22.0019 11.9815 21.9319 11.9215C15.7719 7.35151 7.46196 7.31151 1.26196 11.8215ZM1.77197 12.1515C7.65197 7.99151 15.422 8.00151 21.282 12.1515C15.482 16.3215 7.57197 16.3215 1.77197 12.1515Z" fill="white"/>
<path d="M8.65039 12.1815C8.65039 13.7615 9.94039 15.0515 11.5204 15.0515C13.1004 15.0515 14.3904 13.7615 14.3904 12.1815C14.3904 10.6015 13.1004 9.31152 11.5204 9.31152C9.94039 9.31152 8.65039 10.6015 8.65039 12.1815ZM13.8304 12.1815C13.8304 13.4515 12.8004 14.4915 11.5204 14.4915C10.2404 14.4915 9.21039 13.4615 9.21039 12.1815C9.21039 10.9015 10.2404 9.87152 11.5204 9.87152C12.8004 9.87152 13.8304 10.9015 13.8304 12.1815Z" fill="white"/>
<path d="M22.0511 9.5815C10.4211 3.7915 1.22116 9.5415 1.13116 9.6015C1.00116 9.6815 0.961197 9.8615 1.0412 9.9915C1.1212 10.1215 1.30115 10.1615 1.43115 10.0815C1.45115 10.0715 3.70116 8.6515 7.32116 7.9415C10.6512 7.2915 15.8712 7.14151 21.7912 10.0915C21.8312 10.1115 21.8712 10.1215 21.9212 10.1215C22.0212 10.1215 22.1212 10.0615 22.1712 9.9615C22.2412 9.8215 22.1812 9.6515 22.0412 9.5815H22.0511Z" fill="white"/>
</svg>
