<svg width="145" height="174" viewBox="0 0 145 174" fill="none" xmlns="http://www.w3.org/2000/svg">
<rect width="145" height="174" rx="24" fill="#3A3939"/>
<path d="M91.383 30.5273C91.123 30.5273 90.863 30.4623 90.6355 30.3323C84.3955 27.1148 79.0005 25.7498 72.533 25.7498C66.098 25.7498 59.988 27.2773 54.4305 30.3323C53.6505 30.7548 52.6755 30.4623 52.2205 29.6823C51.798 28.9023 52.0905 27.8948 52.8705 27.4723C58.9155 24.1898 65.5455 22.4998 72.533 22.4998C79.4555 22.4998 85.5005 24.0273 92.1305 27.4398C92.943 27.8623 93.2355 28.8373 92.813 29.6173C92.5205 30.2023 91.968 30.5273 91.383 30.5273ZM44.8755 47.5898C44.5505 47.5898 44.2255 47.4923 43.933 47.2973C43.1855 46.7773 43.023 45.7698 43.543 45.0223C46.7605 40.4723 50.8555 36.8973 55.7305 34.3948C65.9355 29.1298 79.0005 29.0973 89.238 34.3623C94.113 36.8648 98.208 40.4073 101.425 44.9248C101.945 45.6398 101.783 46.6798 101.036 47.1998C100.288 47.7198 99.2805 47.5573 98.7605 46.8098C95.8355 42.7148 92.1305 39.4973 87.743 37.2548C78.4155 32.4773 66.488 32.4773 57.193 37.2873C52.773 39.5623 49.068 42.8123 46.143 46.9073C45.883 47.3623 45.3955 47.5898 44.8755 47.5898ZM65.188 86.8173C64.7655 86.8173 64.343 86.6548 64.0505 86.3298C61.223 83.5023 59.6955 81.6823 57.518 77.7498C55.2755 73.7523 54.1055 68.8773 54.1055 63.6448C54.1055 53.9923 62.3605 46.1273 72.5005 46.1273C82.6405 46.1273 90.8955 53.9923 90.8955 63.6448C90.8955 64.5548 90.1805 65.2698 89.2705 65.2698C88.3605 65.2698 87.6455 64.5548 87.6455 63.6448C87.6455 55.7798 80.853 49.3773 72.5005 49.3773C64.148 49.3773 57.3555 55.7798 57.3555 63.6448C57.3555 68.3248 58.3955 72.6473 60.378 76.1573C62.458 79.8948 63.888 81.4873 66.3905 84.0223C67.008 84.6723 67.008 85.6798 66.3905 86.3298C66.033 86.6548 65.6105 86.8173 65.188 86.8173ZM88.4905 80.8048C84.623 80.8048 81.2105 79.8298 78.4155 77.9123C73.573 74.6298 70.6805 69.2998 70.6805 63.6448C70.6805 62.7348 71.3955 62.0198 72.3055 62.0198C73.2155 62.0198 73.9305 62.7348 73.9305 63.6448C73.9305 68.2273 76.2705 72.5498 80.2355 75.2148C82.543 76.7748 85.2405 77.5223 88.4905 77.5223C89.2705 77.5223 90.5705 77.4248 91.8705 77.1973C92.748 77.0348 93.593 77.6198 93.7555 78.5298C93.918 79.4073 93.333 80.2523 92.423 80.4148C90.5705 80.7723 88.9455 80.8048 88.4905 80.8048ZM81.958 87.4998C81.828 87.4998 81.6655 87.4673 81.5355 87.4348C76.368 86.0048 72.988 84.0873 69.4455 80.6098C64.8955 76.0923 62.393 70.0798 62.393 63.6448C62.393 58.3798 66.878 54.0898 72.403 54.0898C77.928 54.0898 82.413 58.3798 82.413 63.6448C82.413 67.1223 85.4355 69.9498 89.173 69.9498C92.9105 69.9498 95.933 67.1223 95.933 63.6448C95.933 51.3923 85.3705 41.4473 72.3705 41.4473C63.1405 41.4473 54.6905 46.5823 50.888 54.5448C49.6205 57.1773 48.9705 60.2648 48.9705 63.6448C48.9705 66.1798 49.198 70.1773 51.148 75.3773C51.473 76.2223 51.0505 77.1648 50.2055 77.4573C49.3605 77.7823 48.418 77.3273 48.1255 76.5148C46.533 72.2573 45.753 68.0323 45.753 63.6448C45.753 59.7448 46.5005 56.2023 47.963 53.1148C52.2855 44.0473 61.873 38.1648 72.3705 38.1648C87.158 38.1648 99.183 49.5723 99.183 63.6123C99.183 68.8773 94.698 73.1673 89.173 73.1673C83.648 73.1673 79.163 68.8773 79.163 63.6123C79.163 60.1348 76.1405 57.3073 72.403 57.3073C68.6655 57.3073 65.643 60.1348 65.643 63.6123C65.643 69.1698 67.788 74.3698 71.7205 78.2698C74.808 81.3248 77.7655 83.0148 82.348 84.2823C83.2255 84.5098 83.713 85.4198 83.4855 86.2648C83.323 87.0123 82.6405 87.4998 81.958 87.4998Z" fill="#F2F2F2"/>
<path d="M33.299 135V123.8H34.483V133.976H40.755V135H33.299ZM45.4599 135.08C44.6492 135.08 43.9185 134.899 43.2679 134.536C42.6279 134.163 42.1212 133.656 41.7479 133.016C41.3745 132.365 41.1879 131.624 41.1879 130.792C41.1879 129.949 41.3745 129.208 41.7479 128.568C42.1212 127.928 42.6279 127.427 43.2679 127.064C43.9079 126.701 44.6385 126.52 45.4599 126.52C46.2919 126.52 47.0279 126.701 47.6679 127.064C48.3185 127.427 48.8252 127.928 49.1879 128.568C49.5612 129.208 49.7479 129.949 49.7479 130.792C49.7479 131.624 49.5612 132.365 49.1879 133.016C48.8252 133.656 48.3185 134.163 47.6679 134.536C47.0172 134.899 46.2812 135.08 45.4599 135.08ZM45.4599 134.072C46.0679 134.072 46.6065 133.939 47.0759 133.672C47.5452 133.395 47.9132 133.011 48.1799 132.52C48.4572 132.019 48.5959 131.443 48.5959 130.792C48.5959 130.131 48.4572 129.555 48.1799 129.064C47.9132 128.573 47.5452 128.195 47.0759 127.928C46.6065 127.651 46.0732 127.512 45.4759 127.512C44.8785 127.512 44.3452 127.651 43.8759 127.928C43.4065 128.195 43.0332 128.573 42.7559 129.064C42.4785 129.555 42.3399 130.131 42.3399 130.792C42.3399 131.443 42.4785 132.019 42.7559 132.52C43.0332 133.011 43.4065 133.395 43.8759 133.672C44.3452 133.939 44.8732 134.072 45.4599 134.072ZM55.3311 138.184C54.5631 138.184 53.8271 138.072 53.1231 137.848C52.4191 137.624 51.8485 137.304 51.4111 136.888L51.9871 136.024C52.3818 136.376 52.8671 136.653 53.4431 136.856C54.0298 137.069 54.6485 137.176 55.2991 137.176C56.3658 137.176 57.1498 136.925 57.6511 136.424C58.1525 135.933 58.4031 135.165 58.4031 134.12V132.024L58.5631 130.584L58.4511 129.144V126.6H59.5391V133.976C59.5391 135.427 59.1818 136.488 58.4671 137.16C57.7631 137.843 56.7178 138.184 55.3311 138.184ZM55.1231 134.68C54.3231 134.68 53.6031 134.509 52.9631 134.168C52.3231 133.816 51.8165 133.331 51.4431 132.712C51.0805 132.093 50.8991 131.384 50.8991 130.584C50.8991 129.784 51.0805 129.08 51.4431 128.472C51.8165 127.853 52.3231 127.373 52.9631 127.032C53.6031 126.691 54.3231 126.52 55.1231 126.52C55.8698 126.52 56.5418 126.675 57.1391 126.984C57.7365 127.293 58.2111 127.752 58.5631 128.36C58.9151 128.968 59.0911 129.709 59.0911 130.584C59.0911 131.459 58.9151 132.2 58.5631 132.808C58.2111 133.416 57.7365 133.88 57.1391 134.2C56.5418 134.52 55.8698 134.68 55.1231 134.68ZM55.2351 133.672C55.8538 133.672 56.4031 133.544 56.8831 133.288C57.3631 133.021 57.7418 132.659 58.0191 132.2C58.2965 131.731 58.4351 131.192 58.4351 130.584C58.4351 129.976 58.2965 129.443 58.0191 128.984C57.7418 128.525 57.3631 128.168 56.8831 127.912C56.4031 127.645 55.8538 127.512 55.2351 127.512C54.6271 127.512 54.0778 127.645 53.5871 127.912C53.1071 128.168 52.7285 128.525 52.4511 128.984C52.1845 129.443 52.0511 129.976 52.0511 130.584C52.0511 131.192 52.1845 131.731 52.4511 132.2C52.7285 132.659 53.1071 133.021 53.5871 133.288C54.0778 133.544 54.6271 133.672 55.2351 133.672ZM62.3802 135V126.6H63.5162V135H62.3802ZM62.9562 124.744C62.7216 124.744 62.5242 124.664 62.3642 124.504C62.2042 124.344 62.1242 124.152 62.1242 123.928C62.1242 123.704 62.2042 123.517 62.3642 123.368C62.5242 123.208 62.7216 123.128 62.9562 123.128C63.1909 123.128 63.3882 123.203 63.5482 123.352C63.7082 123.501 63.7882 123.688 63.7882 123.912C63.7882 124.147 63.7082 124.344 63.5482 124.504C63.3989 124.664 63.2016 124.744 62.9562 124.744ZM70.6451 126.52C71.3278 126.52 71.9251 126.653 72.4371 126.92C72.9598 127.176 73.3651 127.571 73.6531 128.104C73.9518 128.637 74.1011 129.309 74.1011 130.12V135H72.9651V130.232C72.9651 129.347 72.7411 128.68 72.2931 128.232C71.8558 127.773 71.2371 127.544 70.4371 127.544C69.8398 127.544 69.3171 127.667 68.8691 127.912C68.4318 128.147 68.0905 128.493 67.8451 128.952C67.6105 129.4 67.4931 129.944 67.4931 130.584V135H66.3571V126.6H67.4451V128.904L67.2691 128.472C67.5358 127.864 67.9625 127.389 68.5491 127.048C69.1358 126.696 69.8345 126.52 70.6451 126.52ZM82.4291 135L79.2611 126.6H80.3491L83.2291 134.392H82.7331L85.6931 126.6H86.6691L89.5971 134.392H89.1011L92.0291 126.6H93.0691L89.8851 135H88.8131L85.9971 127.672H86.3331L83.5011 135H82.4291ZM94.4596 135V126.6H95.5956V135H94.4596ZM95.0356 124.744C94.801 124.744 94.6036 124.664 94.4436 124.504C94.2836 124.344 94.2036 124.152 94.2036 123.928C94.2036 123.704 94.2836 123.517 94.4436 123.368C94.6036 123.208 94.801 123.128 95.0356 123.128C95.2703 123.128 95.4676 123.203 95.6276 123.352C95.7876 123.501 95.8676 123.688 95.8676 123.912C95.8676 124.147 95.7876 124.344 95.6276 124.504C95.4783 124.664 95.281 124.744 95.0356 124.744ZM101.093 135.08C100.303 135.08 99.6952 134.867 99.2685 134.44C98.8418 134.013 98.6285 133.411 98.6285 132.632V124.744H99.7645V132.568C99.7645 133.059 99.8872 133.437 100.133 133.704C100.389 133.971 100.751 134.104 101.221 134.104C101.722 134.104 102.138 133.96 102.469 133.672L102.869 134.488C102.645 134.691 102.373 134.84 102.053 134.936C101.743 135.032 101.423 135.08 101.093 135.08ZM97.1245 127.544V126.6H102.325V127.544H97.1245ZM108.905 126.52C109.587 126.52 110.185 126.653 110.697 126.92C111.219 127.176 111.625 127.571 111.913 128.104C112.211 128.637 112.361 129.309 112.361 130.12V135H111.225V130.232C111.225 129.347 111.001 128.68 110.553 128.232C110.115 127.773 109.497 127.544 108.697 127.544C108.099 127.544 107.577 127.667 107.129 127.912C106.691 128.147 106.35 128.493 106.105 128.952C105.87 129.4 105.753 129.944 105.753 130.584V135H104.617V123.128H105.753V128.904L105.529 128.472C105.795 127.864 106.222 127.389 106.809 127.048C107.395 126.696 108.094 126.52 108.905 126.52ZM44.819 154V142.8H49.011C49.9603 142.8 50.7763 142.955 51.459 143.264C52.1417 143.563 52.6643 144 53.027 144.576C53.4003 145.141 53.587 145.829 53.587 146.64C53.587 147.429 53.4003 148.112 53.027 148.688C52.6643 149.253 52.1417 149.691 51.459 150C50.7763 150.309 49.9603 150.464 49.011 150.464H45.475L46.003 149.904V154H44.819ZM46.003 150L45.475 149.424H48.979C50.099 149.424 50.947 149.184 51.523 148.704C52.1097 148.213 52.403 147.525 52.403 146.64C52.403 145.744 52.1097 145.051 51.523 144.56C50.947 144.069 50.099 143.824 48.979 143.824H45.475L46.003 143.264V150ZM55.3684 154V145.6H56.4564V147.888L56.3444 147.488C56.579 146.848 56.9737 146.363 57.5284 146.032C58.083 145.691 58.771 145.52 59.5924 145.52V146.624C59.5497 146.624 59.507 146.624 59.4644 146.624C59.4217 146.613 59.379 146.608 59.3364 146.608C58.451 146.608 57.7577 146.88 57.2564 147.424C56.755 147.957 56.5044 148.72 56.5044 149.712V154H55.3684ZM61.3453 154V145.6H62.4813V154H61.3453ZM61.9213 143.744C61.6866 143.744 61.4893 143.664 61.3293 143.504C61.1693 143.344 61.0893 143.152 61.0893 142.928C61.0893 142.704 61.1693 142.517 61.3293 142.368C61.4893 142.208 61.6866 142.128 61.9213 142.128C62.1559 142.128 62.3533 142.203 62.5133 142.352C62.6733 142.501 62.7533 142.688 62.7533 142.912C62.7533 143.147 62.6733 143.344 62.5133 143.504C62.3639 143.664 62.1666 143.744 61.9213 143.744ZM69.6101 145.52C70.2928 145.52 70.8901 145.653 71.4021 145.92C71.9248 146.176 72.3301 146.571 72.6181 147.104C72.9168 147.637 73.0661 148.309 73.0661 149.12V154H71.9301V149.232C71.9301 148.347 71.7061 147.68 71.2581 147.232C70.8208 146.773 70.2021 146.544 69.4021 146.544C68.8048 146.544 68.2821 146.667 67.8341 146.912C67.3968 147.147 67.0555 147.493 66.8101 147.952C66.5755 148.4 66.4581 148.944 66.4581 149.584V154H65.3221V145.6H66.4101V147.904L66.2341 147.472C66.5008 146.864 66.9275 146.389 67.5141 146.048C68.1008 145.696 68.7995 145.52 69.6101 145.52ZM78.4706 154.08C77.6813 154.08 77.0733 153.867 76.6466 153.44C76.22 153.013 76.0066 152.411 76.0066 151.632V143.744H77.1426V151.568C77.1426 152.059 77.2653 152.437 77.5106 152.704C77.7666 152.971 78.1293 153.104 78.5986 153.104C79.1 153.104 79.516 152.96 79.8466 152.672L80.2466 153.488C80.0226 153.691 79.7506 153.84 79.4306 153.936C79.1213 154.032 78.8013 154.08 78.4706 154.08ZM74.5026 146.544V145.6H79.7026V146.544H74.5026ZM86.1021 154V142.8H87.2861V154H86.1021ZM90.6102 154V142.8H95.1702C96.3649 142.8 97.4102 143.04 98.3062 143.52C99.2129 143.989 99.9169 144.645 100.418 145.488C100.92 146.331 101.17 147.301 101.17 148.4C101.17 149.499 100.92 150.469 100.418 151.312C99.9169 152.155 99.2129 152.816 98.3062 153.296C97.4102 153.765 96.3649 154 95.1702 154H90.6102ZM91.7942 152.976H95.1062C96.0982 152.976 96.9569 152.784 97.6822 152.4C98.4182 152.005 98.9889 151.467 99.3942 150.784C99.7996 150.091 100.002 149.296 100.002 148.4C100.002 147.493 99.7996 146.699 99.3942 146.016C98.9889 145.333 98.4182 144.8 97.6822 144.416C96.9569 144.021 96.0982 143.824 95.1062 143.824H91.7942V152.976Z" fill="white"/>
</svg>
