<svg width="24" height="24" viewBox="0 0 24 24" fill="none" xmlns="http://www.w3.org/2000/svg">
<path d="M12 22C6.48276 22 2 17.5172 2 12C2 6.48276 6.48276 2 12 2C17.5172 2 22 6.48276 22 12C22 17.5172 17.5172 22 12 22ZM12 2.54598C6.78927 2.54598 2.54598 6.78927 2.54598 12C2.54598 17.2107 6.78927 21.454 12 21.454C17.2107 21.454 21.454 17.2107 21.454 12C21.454 6.78927 17.2107 2.54598 12 2.54598Z" fill="black"/>
<path d="M12.0001 18.0628C11.8469 18.0628 11.7319 17.9383 11.7319 17.7946V6.34825C11.7319 6.19499 11.8565 6.08008 12.0001 6.08008C12.1438 6.08008 12.2683 6.20457 12.2683 6.34825V17.7946C12.2683 17.9479 12.1438 18.0628 12.0001 18.0628Z" fill="black"/>
<path d="M17.7277 12.3352H6.28138C6.12813 12.3352 6.01318 12.2107 6.01318 12.0671C6.01318 11.9234 6.1377 11.7988 6.28138 11.7988H17.7277C17.881 11.7988 17.9959 11.9234 17.9959 12.0671C17.9959 12.2107 17.8714 12.3352 17.7277 12.3352Z" fill="black"/>
</svg>
