<svg width="25" height="25" viewBox="0 0 25 25" fill="none" xmlns="http://www.w3.org/2000/svg">
<path d="M22.7446 21.8346H2.69452C2.53452 21.8346 2.41455 21.7046 2.41455 21.5546C2.41455 21.4046 2.54452 21.2745 2.69452 21.2745H22.7446C22.9046 21.2745 23.0245 21.4046 23.0245 21.5546C23.0245 21.7046 22.8946 21.8346 22.7446 21.8346Z" fill="white"/>
<path d="M7.93463 19.6346C7.88463 19.6346 7.82461 19.6146 7.78461 19.5846C7.70461 19.5346 7.6646 19.4546 7.6546 19.3646L7.45459 16.0846C7.45459 16.0246 7.46458 15.9646 7.50458 15.9146L15.5046 3.5746C15.5946 3.4446 15.7646 3.40458 15.8946 3.49458L19.1646 5.61457C19.2246 5.65457 19.2746 5.71457 19.2846 5.79457C19.3046 5.86457 19.2846 5.94459 19.2446 6.00459L11.2446 18.3446C11.2146 18.3946 11.1646 18.4346 11.1046 18.4546L8.03461 19.6146C8.03461 19.6146 7.96463 19.6346 7.93463 19.6346ZM8.0246 16.1546L8.19458 18.9546L10.8146 17.9645L18.6146 5.93458L15.8146 4.12458L8.01459 16.1546H8.0246Z" fill="white"/>
</svg>
