<svg width="25" height="24" fill="none" xmlns="http://www.w3.org/2000/svg"><g clip-path="url(#a)"><mask id="b" style="mask-type:luminance" maskUnits="userSpaceOnUse" x="0" y="0" width="25" height="24"><path d="M.5 24h24V0H.5v24z" fill="#fff"/></mask><g mask="url(#b)" fill="#fff"><path fill-rule="evenodd" clip-rule="evenodd" d="M1.25 12C1.25 5.787 6.287.75 12.5.75S23.75 5.787 23.75 12 18.713 23.25 12.5 23.25 1.25 18.213 1.25 12zM12.5 1.25C6.563 1.25 1.75 6.063 1.75 12S6.563 22.75 12.5 22.75 23.25 17.937 23.25 12 18.437 1.25 12.5 1.25z"/><path d="M8.945 10.463c.113.051.27.028.34-.046l3.288-3.221v11.06c0 .092.113.16.243.16s.244-.074.244-.16V7.15l3.575 3.14c.079.075.235.086.348.035.113-.052.13-.156.052-.23l-4.018-3.532-.01-.005c-.017-.012-.034-.023-.06-.03-.009 0-.017-.005-.026-.01a.33.33 0 0 0-.105-.018s-.052 0-.078.011h-.017a.219.219 0 0 0-.07.03l-.009.005c0 .006-.017.011-.026.017l-3.74 3.664c-.079.075-.044.178.07.224v.012z"/></g></g><defs><clipPath id="a"><path fill="#fff" transform="translate(.5)" d="M0 0h24v24H0z"/></clipPath></defs></svg>