<svg width="151" height="152" viewBox="0 0 151 152" fill="none" xmlns="http://www.w3.org/2000/svg">
<g clip-path="url(#clip0_4571_21063)">
<path fill-rule="evenodd" clip-rule="evenodd" d="M16.9659 17.9109C17.2168 17.6607 17.5145 17.4624 17.8421 17.3273C18.1697 17.1922 18.5207 17.1229 18.875 17.1236H35.0536C37.199 17.1236 39.2565 16.2713 40.7736 14.7543C42.2906 13.2372 43.1429 11.1797 43.1429 9.03429C43.1429 6.88888 42.2906 4.83134 40.7736 3.3143C39.2565 1.79727 37.199 0.945007 35.0536 0.945007L18.875 0.945007C13.869 0.945007 9.06811 2.93362 5.52836 6.47337C1.98861 10.0131 0 14.814 0 19.82L0 35.9986C0 38.144 0.852261 40.2015 2.3693 41.7186C3.88633 43.2356 5.94387 44.0879 8.08929 44.0879C10.2347 44.0879 12.2922 43.2356 13.8093 41.7186C15.3263 40.2015 16.1786 38.144 16.1786 35.9986V19.82C16.1779 19.4657 16.2472 19.1147 16.3822 18.7871C16.5174 18.4595 16.7157 18.1618 16.9659 17.9109ZM151 116.891C151 114.746 150.148 112.688 148.631 111.171C147.114 109.654 145.056 108.802 142.911 108.802C140.765 108.802 138.708 109.654 137.191 111.171C135.674 112.688 134.821 114.746 134.821 116.891V133.07C134.821 133.785 134.537 134.471 134.032 134.977C133.526 135.482 132.84 135.766 132.125 135.766H115.946C113.801 135.766 111.743 136.619 110.226 138.136C108.709 139.653 107.857 141.71 107.857 143.856C107.857 146.001 108.709 148.059 110.226 149.576C111.743 151.093 113.801 151.945 115.946 151.945H132.125C137.131 151.945 141.932 149.956 145.472 146.417C149.011 142.877 151 138.076 151 133.07V116.891ZM8.08929 108.802C10.2347 108.802 12.2922 109.654 13.8093 111.171C15.3263 112.688 16.1786 114.746 16.1786 116.891V133.07C16.1786 133.785 16.4627 134.471 16.9683 134.977C17.474 135.482 18.1599 135.766 18.875 135.766H35.0536C37.199 135.766 39.2565 136.619 40.7736 138.136C42.2906 139.653 43.1429 141.71 43.1429 143.856C43.1429 146.001 42.2906 148.059 40.7736 149.576C39.2565 151.093 37.199 151.945 35.0536 151.945H18.875C13.869 151.945 9.06811 149.956 5.52836 146.417C1.98861 142.877 0 138.076 0 133.07L0 116.891C0 114.746 0.852261 112.688 2.3693 111.171C3.88633 109.654 5.94387 108.802 8.08929 108.802ZM115.946 0.945007C113.801 0.945007 111.743 1.79727 110.226 3.3143C108.709 4.83134 107.857 6.88888 107.857 9.03429C107.857 11.1797 108.709 13.2372 110.226 14.7543C111.743 16.2713 113.801 17.1236 115.946 17.1236H132.125C132.84 17.1236 133.526 17.4077 134.032 17.9133C134.537 18.419 134.821 19.1049 134.821 19.82V35.9986C134.821 38.144 135.674 40.2015 137.191 41.7186C138.708 43.2356 140.765 44.0879 142.911 44.0879C145.056 44.0879 147.114 43.2356 148.631 41.7186C150.148 40.2015 151 38.144 151 35.9986V19.82C151 14.814 149.011 10.0131 145.472 6.47337C141.932 2.93362 137.131 0.945007 132.125 0.945007H115.946ZM75.5 84.8147C65.7697 84.8096 56.2708 87.782 48.2791 93.3329C40.2874 98.8837 34.1856 106.747 30.7932 115.867C29.5852 119.092 32.163 122.284 35.6036 122.284H115.375C118.826 122.284 121.393 119.092 120.196 115.867C116.804 106.747 110.702 98.8837 102.71 93.3329C94.7184 87.782 85.2303 84.8096 75.5 84.8147ZM99.3149 49.0601C99.3149 55.3833 96.803 61.4476 92.3317 65.9188C87.8605 70.39 81.7963 72.9019 75.473 72.9019C69.1498 72.9019 63.0855 70.39 58.6143 65.9188C54.1431 61.4476 51.6312 55.3833 51.6312 49.0601C51.6312 42.7368 54.1431 36.6726 58.6143 32.2014C63.0855 27.7302 69.1498 25.2183 75.473 25.2183C81.7963 25.2183 87.8605 27.7302 92.3317 32.2014C96.803 36.6726 99.3149 42.7368 99.3149 49.0601Z" fill="#3678B1"/>
</g>
<defs>
<clipPath id="clip0_4571_21063">
<rect width="151" height="151" fill="white" transform="translate(0 0.945007)"/>
</clipPath>
</defs>
</svg>
